<svg width="32" height="54" viewBox="0 0 32 54" fill="none" xmlns="http://www.w3.org/2000/svg">
<path d="M0.513698 19.9996C0.514116 19.1714 1.18569 18.5 2.01371 18.5H21.9984C22.8264 18.5 23.4977 19.171 23.4982 19.999C23.5029 29.0209 23.4976 37.7585 23.4924 44.1099C23.4911 45.7015 23.1678 46.916 22.6144 47.8499C22.0624 48.7813 21.2609 49.4685 20.2441 49.9739C18.1831 50.9983 15.2852 51.2552 11.9671 51.2552C8.65947 51.2552 5.77434 51.032 3.72279 50.0436C2.71164 49.5565 1.9166 48.8891 1.36981 47.9764C0.821423 47.0611 0.500794 45.8622 0.501406 44.278C0.502977 40.2159 0.505692 35.1445 0.508669 29.5832C0.510315 26.5091 0.512041 23.2854 0.513698 19.9996Z" stroke="#707070"/>
<path d="M23.5 40.5L23.5 22.5H26C29.0376 22.5 31.5 24.9624 31.5 28V35C31.5 38.0376 29.0376 40.5 26 40.5H23.5Z" stroke="#707070"/>
<path d="M23.5 36V27C23.5 26.1716 24.1716 25.5 25 25.5H26C27.3807 25.5 28.5 26.6193 28.5 28V35C28.5 36.3807 27.3807 37.5 26 37.5H25C24.1716 37.5 23.5 36.8284 23.5 36Z" stroke="#707070"/>
<path d="M6 1C7.41378 2.24994 9.61558 5.04857 8.83828 7.60112C8.47525 8.79325 8.03201 9.94383 7.92043 11.2434C7.76544 13.0486 8.32031 14.468 8.923 16" stroke="#707070" stroke-linecap="square"/>
<path d="M12 1C13.7573 3.54631 15.5839 7.00305 14.8659 10.1987C14.3998 12.2734 14.51 14.442 16 16" stroke="#707070" stroke-linecap="square"/>
</svg>
