<svg width="32" height="52" viewBox="0 0 32 52" fill="none" xmlns="http://www.w3.org/2000/svg">
<path d="M2.00383 18.5H21.9887C22.8167 18.5 23.488 19.1709 23.4886 19.9989C23.4939 28.0952 23.4945 36.1774 23.4934 42.1337C23.4931 43.7239 23.1705 44.8763 22.6281 45.7232C22.0882 46.5662 21.3016 47.1516 20.2894 47.5588C18.2251 48.3893 15.3321 48.4423 11.9902 48.4423C8.64733 48.4423 5.75811 48.417 3.69483 47.6132C2.68413 47.2195 1.90053 46.6481 1.36297 45.8177C0.822779 44.9833 0.500512 43.8403 0.500307 42.2514C0.499544 36.3361 0.500022 28.2645 0.503896 19.9993C0.504284 19.1712 1.17575 18.5 2.00383 18.5Z" stroke="#EEEEEE"/>
<path d="M23.4902 40.5L23.4902 22.5H25.9902C29.0278 22.5 31.4902 24.9624 31.4902 28V35C31.4902 38.0376 29.0278 40.5 25.9902 40.5H23.4902Z" stroke="#EEEEEE"/>
<path d="M23.4902 36V27C23.4902 26.1716 24.1618 25.5 24.9902 25.5H25.9902C27.3709 25.5 28.4902 26.6193 28.4902 28V35C28.4902 36.3807 27.3709 37.5 25.9902 37.5H24.9902C24.1618 37.5 23.4902 36.8284 23.4902 36Z" stroke="#EEEEEE"/>
<path d="M5.99021 1C7.40399 2.24994 9.60579 5.04857 8.82849 7.60112C8.46546 8.79325 8.02222 9.94383 7.91064 11.2434C7.75565 13.0486 8.31052 14.468 8.91321 16" stroke="#EEEEEE" stroke-linecap="square"/>
<path d="M12.9902 1C14.404 2.24994 16.6058 5.04857 15.8285 7.60112C15.4655 8.79325 15.0222 9.94383 14.9106 11.2434C14.7557 13.0486 15.3105 14.468 15.9132 16" stroke="#EEEEEE" stroke-linecap="square"/>
</svg>
