<svg width="32" height="52" viewBox="0 0 32 52" fill="none" xmlns="http://www.w3.org/2000/svg">
<path d="M0.513662 19.9993C0.51405 19.1712 1.18552 18.5 2.01359 18.5H21.9984C22.8264 18.5 23.4978 19.1709 23.4983 19.9989C23.5036 28.0952 23.5043 36.1774 23.5032 42.1337C23.5029 43.7239 23.1803 44.8763 22.6379 45.7232C22.098 46.5662 21.3114 47.1516 20.2992 47.5588C18.2348 48.3893 15.3419 48.4423 12 48.4423C8.65709 48.4423 5.76787 48.417 3.70459 47.6132C2.6939 47.2195 1.91029 46.6481 1.37274 45.8177C0.832544 44.9833 0.510278 43.8403 0.510073 42.2514C0.50931 36.3361 0.509788 28.2645 0.513662 19.9993Z" stroke="#707070"/>
<path d="M23.5 40.5L23.5 22.5H26C29.0375 22.5 31.5 24.9624 31.5 28V35C31.5 38.0376 29.0375 40.5 26 40.5H23.5Z" stroke="#707070"/>
<path d="M25 37.5C24.1715 37.5 23.5 36.8284 23.5 36V27C23.5 26.1716 24.1715 25.5 25 25.5H26C27.3807 25.5 28.5 26.6193 28.5 28V35C28.5 36.3807 27.3807 37.5 26 37.5H25Z" stroke="#707070"/>
<path d="M5.99997 1C7.41375 2.24994 9.61555 5.04857 8.83825 7.60112C8.47522 8.79325 8.03198 9.94383 7.9204 11.2434C7.76541 13.0486 8.32027 14.468 8.92297 16" stroke="#707070" stroke-linecap="square"/>
<path d="M13 1C14.4137 2.24994 16.6156 5.04857 15.8382 7.60112C15.4752 8.79325 15.032 9.94383 14.9204 11.2434C14.7654 13.0486 15.3203 14.468 15.923 16" stroke="#707070" stroke-linecap="square"/>
</svg>
