<svg width="102" height="78" viewBox="0 0 102 78" fill="none" xmlns="http://www.w3.org/2000/svg">
<rect x="1.5" y="21.5" width="100" height="56" rx="1.5" stroke="#707070"/>
<rect x="11.5" y="45.5" width="80" height="14" rx="0.5" stroke="#707070"/>
<rect x="1.5" y="61.5" width="100" height="8" rx="0.5" stroke="#707070"/>
<path d="M3 21.5H100C100.828 21.5 101.5 22.1716 101.5 23V30C101.5 30.2761 101.276 30.5 101 30.5H2C1.72386 30.5 1.5 30.2761 1.5 30V23C1.5 22.1716 2.17157 21.5 3 21.5Z" stroke="#707070"/>
<path d="M31 32V44M71 32V44" stroke="#707070"/>
<path d="M18.85 57.112C17.758 57.112 16.9413 56.7107 16.4 55.908C15.868 55.096 15.602 53.9153 15.602 52.366C15.602 50.8167 15.868 49.6407 16.4 48.838C16.9413 48.026 17.758 47.62 18.85 47.62C19.4847 47.6293 20.012 47.7693 20.432 48.04C20.852 48.3013 21.1833 48.656 21.426 49.104C21.6687 49.552 21.8413 50.056 21.944 50.616C22.0467 51.176 22.098 51.7593 22.098 52.366C22.098 53.9153 21.8273 55.096 21.286 55.908C20.754 56.7107 19.942 57.112 18.85 57.112ZM18.85 56.09C19.326 56.0807 19.7087 55.964 19.998 55.74C20.2873 55.516 20.5067 55.222 20.656 54.858C20.8147 54.494 20.9173 54.0973 20.964 53.668C21.02 53.2293 21.048 52.7953 21.048 52.366C21.048 51.1247 20.8753 50.196 20.53 49.58C20.1847 48.9547 19.6247 48.642 18.85 48.642C18.0847 48.642 17.5247 48.9547 17.17 49.58C16.8247 50.196 16.652 51.1247 16.652 52.366C16.652 53.6073 16.8247 54.5407 17.17 55.166C17.5247 55.782 18.0847 56.09 18.85 56.09ZM26.8273 57.112C25.7353 57.112 24.9186 56.7107 24.3773 55.908C23.8453 55.096 23.5793 53.9153 23.5793 52.366C23.5793 50.8167 23.8453 49.6407 24.3773 48.838C24.9186 48.026 25.7353 47.62 26.8273 47.62C27.4619 47.6293 27.9893 47.7693 28.4093 48.04C28.8293 48.3013 29.1606 48.656 29.4033 49.104C29.6459 49.552 29.8186 50.056 29.9213 50.616C30.0239 51.176 30.0753 51.7593 30.0753 52.366C30.0753 53.9153 29.8046 55.096 29.2633 55.908C28.7313 56.7107 27.9193 57.112 26.8273 57.112ZM26.8273 56.09C27.3033 56.0807 27.6859 55.964 27.9753 55.74C28.2646 55.516 28.4839 55.222 28.6333 54.858C28.7919 54.494 28.8946 54.0973 28.9413 53.668C28.9973 53.2293 29.0253 52.7953 29.0253 52.366C29.0253 51.1247 28.8526 50.196 28.5073 49.58C28.1619 48.9547 27.6019 48.642 26.8273 48.642C26.0619 48.642 25.5019 48.9547 25.1473 49.58C24.8019 50.196 24.6293 51.1247 24.6293 52.366C24.6293 53.6073 24.8019 54.5407 25.1473 55.166C25.5019 55.782 26.0619 56.09 26.8273 56.09ZM31.6965 57V55.572H33.0545V57H31.6965ZM37.9283 57.112C36.8363 57.112 36.0196 56.7107 35.4783 55.908C34.9463 55.096 34.6803 53.9153 34.6803 52.366C34.6803 50.8167 34.9463 49.6407 35.4783 48.838C36.0196 48.026 36.8363 47.62 37.9283 47.62C38.5629 47.6293 39.0903 47.7693 39.5103 48.04C39.9303 48.3013 40.2616 48.656 40.5043 49.104C40.7469 49.552 40.9196 50.056 41.0223 50.616C41.1249 51.176 41.1763 51.7593 41.1763 52.366C41.1763 53.9153 40.9056 55.096 40.3643 55.908C39.8323 56.7107 39.0203 57.112 37.9283 57.112ZM37.9283 56.09C38.4043 56.0807 38.7869 55.964 39.0763 55.74C39.3656 55.516 39.5849 55.222 39.7343 54.858C39.8929 54.494 39.9956 54.0973 40.0423 53.668C40.0983 53.2293 40.1263 52.7953 40.1263 52.366C40.1263 51.1247 39.9536 50.196 39.6083 49.58C39.2629 48.9547 38.7029 48.642 37.9283 48.642C37.1629 48.642 36.6029 48.9547 36.2483 49.58C35.9029 50.196 35.7303 51.1247 35.7303 52.366C35.7303 53.6073 35.9029 54.5407 36.2483 55.166C36.6029 55.782 37.1629 56.09 37.9283 56.09ZM45.9055 57.112C44.8135 57.112 43.9969 56.7107 43.4555 55.908C42.9235 55.096 42.6575 53.9153 42.6575 52.366C42.6575 50.8167 42.9235 49.6407 43.4555 48.838C43.9969 48.026 44.8135 47.62 45.9055 47.62C46.5402 47.6293 47.0675 47.7693 47.4875 48.04C47.9075 48.3013 48.2389 48.656 48.4815 49.104C48.7242 49.552 48.8969 50.056 48.9995 50.616C49.1022 51.176 49.1535 51.7593 49.1535 52.366C49.1535 53.9153 48.8829 55.096 48.3415 55.908C47.8095 56.7107 46.9975 57.112 45.9055 57.112ZM45.9055 56.09C46.3815 56.0807 46.7642 55.964 47.0535 55.74C47.3429 55.516 47.5622 55.222 47.7115 54.858C47.8702 54.494 47.9729 54.0973 48.0195 53.668C48.0755 53.2293 48.1035 52.7953 48.1035 52.366C48.1035 51.1247 47.9309 50.196 47.5855 49.58C47.2402 48.9547 46.6802 48.642 45.9055 48.642C45.1402 48.642 44.5802 48.9547 44.2255 49.58C43.8802 50.196 43.7075 51.1247 43.7075 52.366C43.7075 53.6073 43.8802 54.5407 44.2255 55.166C44.5802 55.782 45.1402 56.09 45.9055 56.09ZM50.7748 57V55.572H52.1328V57H50.7748ZM57.0066 57.112C55.9146 57.112 55.0979 56.7107 54.5566 55.908C54.0246 55.096 53.7586 53.9153 53.7586 52.366C53.7586 50.8167 54.0246 49.6407 54.5566 48.838C55.0979 48.026 55.9146 47.62 57.0066 47.62C57.6412 47.6293 58.1686 47.7693 58.5886 48.04C59.0086 48.3013 59.3399 48.656 59.5826 49.104C59.8252 49.552 59.9979 50.056 60.1006 50.616C60.2032 51.176 60.2546 51.7593 60.2546 52.366C60.2546 53.9153 59.9839 55.096 59.4426 55.908C58.9106 56.7107 58.0986 57.112 57.0066 57.112ZM57.0066 56.09C57.4826 56.0807 57.8652 55.964 58.1546 55.74C58.4439 55.516 58.6632 55.222 58.8126 54.858C58.9712 54.494 59.0739 54.0973 59.1206 53.668C59.1766 53.2293 59.2046 52.7953 59.2046 52.366C59.2046 51.1247 59.0319 50.196 58.6866 49.58C58.3412 48.9547 57.7812 48.642 57.0066 48.642C56.2412 48.642 55.6812 48.9547 55.3266 49.58C54.9812 50.196 54.8086 51.1247 54.8086 52.366C54.8086 53.6073 54.9812 54.5407 55.3266 55.166C55.6812 55.782 56.2412 56.09 57.0066 56.09ZM64.9838 57.112C63.8918 57.112 63.0752 56.7107 62.5338 55.908C62.0018 55.096 61.7358 53.9153 61.7358 52.366C61.7358 50.8167 62.0018 49.6407 62.5338 48.838C63.0752 48.026 63.8918 47.62 64.9838 47.62C65.6185 47.6293 66.1458 47.7693 66.5658 48.04C66.9858 48.3013 67.3172 48.656 67.5598 49.104C67.8025 49.552 67.9752 50.056 68.0778 50.616C68.1805 51.176 68.2318 51.7593 68.2318 52.366C68.2318 53.9153 67.9612 55.096 67.4198 55.908C66.8878 56.7107 66.0758 57.112 64.9838 57.112ZM64.9838 56.09C65.4598 56.0807 65.8425 55.964 66.1318 55.74C66.4212 55.516 66.6405 55.222 66.7898 54.858C66.9485 54.494 67.0512 54.0973 67.0978 53.668C67.1538 53.2293 67.1818 52.7953 67.1818 52.366C67.1818 51.1247 67.0092 50.196 66.6638 49.58C66.3185 48.9547 65.7585 48.642 64.9838 48.642C64.2185 48.642 63.6585 48.9547 63.3038 49.58C62.9585 50.196 62.7858 51.1247 62.7858 52.366C62.7858 53.6073 62.9585 54.5407 63.3038 55.166C63.6585 55.782 64.2185 56.09 64.9838 56.09ZM69.8531 57V55.572H71.2111V57H69.8531ZM76.0848 57.112C74.9928 57.112 74.1762 56.7107 73.6348 55.908C73.1028 55.096 72.8368 53.9153 72.8368 52.366C72.8368 50.8167 73.1028 49.6407 73.6348 48.838C74.1762 48.026 74.9928 47.62 76.0848 47.62C76.7195 47.6293 77.2468 47.7693 77.6668 48.04C78.0868 48.3013 78.4182 48.656 78.6608 49.104C78.9035 49.552 79.0762 50.056 79.1788 50.616C79.2815 51.176 79.3328 51.7593 79.3328 52.366C79.3328 53.9153 79.0622 55.096 78.5208 55.908C77.9888 56.7107 77.1768 57.112 76.0848 57.112ZM76.0848 56.09C76.5608 56.0807 76.9435 55.964 77.2328 55.74C77.5222 55.516 77.7415 55.222 77.8908 54.858C78.0495 54.494 78.1522 54.0973 78.1988 53.668C78.2548 53.2293 78.2828 52.7953 78.2828 52.366C78.2828 51.1247 78.1102 50.196 77.7648 49.58C77.4195 48.9547 76.8595 48.642 76.0848 48.642C75.3195 48.642 74.7595 48.9547 74.4048 49.58C74.0595 50.196 73.8868 51.1247 73.8868 52.366C73.8868 53.6073 74.0595 54.5407 74.4048 55.166C74.7595 55.782 75.3195 56.09 76.0848 56.09ZM84.0621 57.112C82.9701 57.112 82.1534 56.7107 81.6121 55.908C81.0801 55.096 80.8141 53.9153 80.8141 52.366C80.8141 50.8167 81.0801 49.6407 81.6121 48.838C82.1534 48.026 82.9701 47.62 84.0621 47.62C84.6968 47.6293 85.2241 47.7693 85.6441 48.04C86.0641 48.3013 86.3954 48.656 86.6381 49.104C86.8808 49.552 87.0534 50.056 87.1561 50.616C87.2588 51.176 87.3101 51.7593 87.3101 52.366C87.3101 53.9153 87.0394 55.096 86.4981 55.908C85.9661 56.7107 85.1541 57.112 84.0621 57.112ZM84.0621 56.09C84.5381 56.0807 84.9208 55.964 85.2101 55.74C85.4994 55.516 85.7188 55.222 85.8681 54.858C86.0268 54.494 86.1294 54.0973 86.1761 53.668C86.2321 53.2293 86.2601 52.7953 86.2601 52.366C86.2601 51.1247 86.0874 50.196 85.7421 49.58C85.3968 48.9547 84.8368 48.642 84.0621 48.642C83.2968 48.642 82.7368 48.9547 82.3821 49.58C82.0368 50.196 81.8641 51.1247 81.8641 52.366C81.8641 53.6073 82.0368 54.5407 82.3821 55.166C82.7368 55.782 83.2968 56.09 84.0621 56.09Z" fill="#707070"/>
<path d="M24.9213 30.5L30.7713 21.5H38.5787L32.7287 30.5H24.9213Z" stroke="#707070"/>
<path d="M42.9213 30.5L48.7713 21.5H56.5787L50.7287 30.5H42.9213Z" stroke="#707070"/>
<path d="M60.9213 30.5L66.7713 21.5H74.5787L68.7287 30.5H60.9213Z" stroke="#707070"/>
<path d="M78.9213 30.5L84.7713 21.5H92.5787L86.7287 30.5H78.9213Z" stroke="#707070"/>
<rect x="0.553388" y="11.8737" width="100" height="9" rx="1.5" transform="rotate(-6.5 0.553388 11.8737)" stroke="#707070"/>
<path d="M23.8242 9.22234L30.6554 17.5022L38.4125 16.6184L31.5813 8.33852L23.8242 9.22234Z" stroke="#707070"/>
<path d="M41.7085 7.18468L48.5397 15.4646L56.2968 14.5808L49.4656 6.30087L41.7085 7.18468Z" stroke="#707070"/>
<path d="M59.5928 5.14702L66.424 13.4269L74.1811 12.5431L67.3499 4.26321L59.5928 5.14702Z" stroke="#707070"/>
<path d="M77.477 3.10936L84.3083 11.3893L92.0654 10.5055L85.2342 2.22555L77.477 3.10936Z" stroke="#707070"/>
</svg>
