<svg width="42" height="42" viewBox="0 0 42 42" fill="none" xmlns="http://www.w3.org/2000/svg">
<rect x="0.5" y="0.5" width="41" height="41" rx="11.5" fill="#EEEEEE" stroke="#707070"/>
<mask id="path-2-outside-1_340_54" maskUnits="userSpaceOnUse" x="6.375" y="6" width="31" height="28" fill="black">
<rect fill="white" x="6.375" y="6" width="31" height="28"/>
<path d="M10.207 12.336C9.379 12.336 8.731 12.12 8.263 11.688C7.807 11.244 7.579 10.632 7.579 9.852C7.579 9.096 7.807 8.496 8.263 8.052C8.731 7.596 9.379 7.368 10.207 7.368C11.023 7.368 11.665 7.596 12.133 8.052C12.601 8.496 12.835 9.096 12.835 9.852C12.835 10.632 12.601 11.244 12.133 11.688C11.665 12.12 11.023 12.336 10.207 12.336ZM8.083 33V15.468H12.331V33H8.083ZM31.5235 33V22.776C31.5235 21.48 31.2115 20.502 30.5875 19.842C29.9635 19.182 29.1475 18.852 28.1395 18.852C27.2875 18.852 26.5315 19.086 25.8715 19.554C25.2235 20.022 24.7135 20.73 24.3415 21.678C23.9695 22.614 23.7835 23.784 23.7835 25.188H22.3795C22.3795 22.92 22.6615 21.036 23.2255 19.536C23.7895 18.024 24.5875 16.896 25.6195 16.152C26.6515 15.408 27.8635 15.036 29.2555 15.036C30.6955 15.036 31.8955 15.36 32.8555 16.008C33.8275 16.644 34.5535 17.544 35.0335 18.708C35.5255 19.872 35.7715 21.228 35.7715 22.776V33H31.5235ZM19.5355 33V15.54H23.2435L23.7835 18.996V33H19.5355Z"/>
</mask>
<path d="M8.263 11.688L7.56538 12.4045L7.57493 12.4138L7.58472 12.4228L8.263 11.688ZM8.263 8.052L8.96062 8.76847L8.96086 8.76823L8.263 8.052ZM12.133 8.052L11.4351 8.76829L11.4447 8.77746L12.133 8.052ZM12.133 11.688L12.8113 12.4229L12.8213 12.4135L12.133 11.688ZM8.083 33H7.083V34H8.083V33ZM8.083 15.468V14.468H7.083V15.468H8.083ZM12.331 15.468H13.331V14.468H12.331V15.468ZM12.331 33V34H13.331V33H12.331ZM10.207 11.336C9.55271 11.336 9.17447 11.1684 8.94128 10.9532L7.58472 12.4228C8.28753 13.0716 9.20529 13.336 10.207 13.336V11.336ZM8.96062 10.9715C8.74001 10.7567 8.579 10.4271 8.579 9.852H6.579C6.579 10.8369 6.87399 11.7313 7.56538 12.4045L8.96062 10.9715ZM8.579 9.852C8.579 9.31118 8.73388 8.98924 8.96062 8.76847L7.56538 7.33553C6.88012 8.00276 6.579 8.88081 6.579 9.852H8.579ZM8.96086 8.76823C9.19569 8.53942 9.56677 8.368 10.207 8.368V6.368C9.19123 6.368 8.26631 6.65258 7.56514 7.33577L8.96086 8.76823ZM10.207 8.368C10.8305 8.368 11.1976 8.53682 11.4351 8.76823L12.8309 7.33577C12.1324 6.65517 11.2155 6.368 10.207 6.368V8.368ZM11.4447 8.77746C11.6793 9.00003 11.835 9.31906 11.835 9.852H13.835C13.835 8.87293 13.5227 7.99196 12.8213 7.32654L11.4447 8.77746ZM11.835 9.852C11.835 10.4194 11.6729 10.746 11.4447 10.9625L12.8213 12.4135C13.5291 11.742 13.835 10.8446 13.835 9.852H11.835ZM11.4547 10.9532C11.219 11.1708 10.8448 11.336 10.207 11.336V13.336C11.2012 13.336 12.111 13.0692 12.8113 12.4228L11.4547 10.9532ZM9.083 33V15.468H7.083V33H9.083ZM8.083 16.468H12.331V14.468H8.083V16.468ZM11.331 15.468V33H13.331V15.468H11.331ZM12.331 32H8.083V34H12.331V32ZM31.5235 33H30.5235V34H31.5235V33ZM30.5875 19.842L29.8609 20.529L29.8609 20.529L30.5875 19.842ZM25.8715 19.554L25.2931 18.7382L25.286 18.7433L25.8715 19.554ZM24.3415 21.678L25.2708 22.0473L25.2724 22.0433L24.3415 21.678ZM23.7835 25.188V26.188H24.7835V25.188H23.7835ZM22.3795 25.188H21.3795V26.188H22.3795V25.188ZM23.2255 19.536L24.1615 19.8879L24.1624 19.8855L23.2255 19.536ZM25.6195 16.152L25.0347 15.3408L25.0347 15.3408L25.6195 16.152ZM32.8555 16.008L32.296 16.8368L32.302 16.8409L32.308 16.8448L32.8555 16.008ZM35.0335 18.708L34.109 19.0892L34.1124 19.0973L35.0335 18.708ZM35.7715 33V34H36.7715V33H35.7715ZM19.5355 33H18.5355V34H19.5355V33ZM19.5355 15.54V14.54H18.5355V15.54H19.5355ZM23.2435 15.54L24.2315 15.3856L24.0994 14.54H23.2435V15.54ZM23.7835 18.996H24.7835V18.9183L24.7715 18.8416L23.7835 18.996ZM23.7835 33V34H24.7835V33H23.7835ZM32.5235 33V22.776H30.5235V33H32.5235ZM32.5235 22.776C32.5235 21.3335 32.1765 20.0671 31.3141 19.155L29.8609 20.529C30.2465 20.9369 30.5235 21.6265 30.5235 22.776H32.5235ZM31.3141 19.155C30.4795 18.2722 29.3891 17.852 28.1395 17.852V19.852C28.9059 19.852 29.4475 20.0918 29.8609 20.529L31.3141 19.155ZM28.1395 17.852C27.0919 17.852 26.1314 18.1438 25.2931 18.7383L26.4499 20.3697C26.9316 20.0282 27.4831 19.852 28.1395 19.852V17.852ZM25.286 18.7433C24.4451 19.3506 23.8336 20.2347 23.4106 21.3127L25.2724 22.0433C25.5934 21.2253 26.0019 20.6934 26.457 20.3647L25.286 18.7433ZM23.4122 21.3087C22.979 22.3987 22.7835 23.7038 22.7835 25.188H24.7835C24.7835 23.8642 24.96 22.8293 25.2708 22.0473L23.4122 21.3087ZM23.7835 24.188H22.3795V26.188H23.7835V24.188ZM23.3795 25.188C23.3795 22.9942 23.6534 21.2392 24.1615 19.8879L22.2895 19.1841C21.6696 20.8328 21.3795 22.8458 21.3795 25.188H23.3795ZM24.1624 19.8855C24.6758 18.5092 25.3709 17.564 26.2043 16.9632L25.0347 15.3408C23.8041 16.228 22.9032 17.5388 22.2886 19.1865L24.1624 19.8855ZM26.2043 16.9632C27.0499 16.3536 28.0526 16.036 29.2555 16.036V14.036C27.6744 14.036 26.2531 14.4624 25.0347 15.3408L26.2043 16.9632ZM29.2555 16.036C30.5449 16.036 31.5375 16.3249 32.296 16.8368L33.415 15.1791C32.2535 14.3951 30.8461 14.036 29.2555 14.036V16.036ZM32.308 16.8448C33.097 17.3611 33.6991 18.0952 34.109 19.0892L35.958 18.3268C35.4079 16.9928 34.558 15.9269 33.403 15.1712L32.308 16.8448ZM34.1124 19.0973C34.542 20.1138 34.7715 21.3325 34.7715 22.776H36.7715C36.7715 21.1235 36.509 19.6302 35.9546 18.3187L34.1124 19.0973ZM34.7715 22.776V33H36.7715V22.776H34.7715ZM35.7715 32H31.5235V34H35.7715V32ZM20.5355 33V15.54H18.5355V33H20.5355ZM19.5355 16.54H23.2435V14.54H19.5355V16.54ZM22.2555 15.6944L22.7955 19.1504L24.7715 18.8416L24.2315 15.3856L22.2555 15.6944ZM22.7835 18.996V33H24.7835V18.996H22.7835ZM23.7835 32H19.5355V34H23.7835V32Z" fill="#707070" mask="url(#path-2-outside-1_340_54)"/>
</svg>
