<svg width="142" height="78" viewBox="0 0 142 78" fill="none" xmlns="http://www.w3.org/2000/svg">
<circle cx="28.5" cy="28.5" r="27.9" stroke="#707070" stroke-width="1.2"/>
<circle cx="29" cy="28" r="7.4" stroke="#707070" stroke-width="1.2"/>
<circle cx="29" cy="28" r="3.4" stroke="#707070" stroke-width="1.2"/>
<circle cx="114" cy="28" r="3.4" stroke="#707070" stroke-width="1.2"/>
<circle cx="114" cy="28" r="7.4" stroke="#707070" stroke-width="1.2"/>
<circle cx="114" cy="28" r="13.5" stroke="#707070"/>
<circle cx="113.5" cy="28.5" r="27.9" stroke="#707070" stroke-width="1.2"/>
<path d="M62.4467 63.4427C62.1445 62.5362 62.8193 61.6 63.7749 61.6H78.2251C79.1807 61.6 79.8555 62.5362 79.5533 63.4427L77.7983 68.7076C77.0633 70.9127 74.9998 72.4 72.6754 72.4H69.3246C67.0002 72.4 64.9367 70.9127 64.2017 68.7076L62.4467 63.4427Z" stroke="#707070" stroke-width="1.2"/>
<circle cx="29" cy="73" r="2.4" stroke="#707070" stroke-width="1.2"/>
<circle cx="114" cy="73" r="2.4" stroke="#707070" stroke-width="1.2"/>
<circle cx="47" cy="73" r="4.4" stroke="#707070" stroke-width="1.2"/>
<circle cx="96" cy="73" r="4.4" stroke="#707070" stroke-width="1.2"/>
<line x1="4.40601" y1="42.7082" x2="27.406" y2="74.7082" stroke="#707070"/>
<line x1="29.8597" y1="75.3201" x2="42.8597" y2="71.5201" stroke="#707070"/>
<line x1="113.832" y1="75.4709" x2="99.8318" y2="70.4709" stroke="#707070"/>
<line x1="51.0523" y1="70.5027" x2="70.0523" y2="72.5027" stroke="#707070"/>
<line y1="-0.5" x2="19.105" y2="-0.5" transform="matrix(-0.994505 0.104685 0.104685 0.994505 92 71)" stroke="#707070"/>
<line x1="116.515" y1="72.8787" x2="126.515" y2="32.8787" stroke="#707070"/>
<line x1="113.5" y1="5" x2="113.5" y2="17" stroke="#707070"/>
<line x1="123.257" y1="33.5713" x2="133.547" y2="39.7452" stroke="#707070"/>
<line y1="-0.5" x2="12" y2="-0.5" transform="matrix(-0.857493 0.514496 0.514496 0.857493 105.29 34)" stroke="#707070"/>
<line x1="48.7115" y1="16.0215" x2="38.3192" y2="22.0215" stroke="#707070"/>
<line x1="28.7459" y1="38.7479" x2="28.7459" y2="50.7479" stroke="#707070"/>
<line y1="-0.5" x2="12" y2="-0.5" transform="matrix(-0.874313 -0.485363 -0.485363 0.874313 19.4918 23.4113)" stroke="#707070"/>
<line x1="97.3536" y1="71.3536" x2="94.3536" y2="74.3536" stroke="#707070"/>
<line x1="47.1326" y1="75.2699" x2="46.5055" y2="71.0739" stroke="#707070"/>
</svg>
